<svg version="1.1" id="Layer_1" xmlns="http://www.w3.org/2000/svg" xmlns:xlink="http://www.w3.org/1999/xlink" x="0px" y="0px"
	 width="100%" viewBox="0 0 1024 1024" enable-background="new 0 0 1024 1024" xml:space="preserve">
<path fill="#000000" opacity="1.000000" stroke="none" 
	d="
M132.219818,526.646790 
	C118.350800,502.589417 112.347557,476.902405 113.851501,449.682190 
	C115.970993,411.320953 129.758316,378.177002 159.504532,352.717987 
	C162.909027,349.804138 166.599243,347.191620 170.335495,344.707947 
	C173.424042,342.654877 176.829071,342.494720 179.299072,345.630035 
	C181.692093,348.667542 179.932037,351.303406 177.453903,353.383514 
	C175.243591,355.238708 175.282257,356.888885 176.731262,359.380493 
	C182.446487,369.207977 182.345871,369.266479 191.856750,363.534882 
	C236.450577,336.661255 294.566498,344.516632 327.993530,381.710114 
	C344.661560,400.256195 353.725555,421.890747 355.406799,446.643463 
	C357.959045,484.219208 345.939606,515.977722 317.267944,540.960266 
	C316.265320,541.833862 315.040192,542.474243 314.126984,543.423523 
	C312.371338,545.248535 308.188232,545.587524 308.878326,548.667480 
	C309.886902,553.168884 312.419403,557.269653 315.407806,560.899109 
	C316.317871,562.004395 317.585022,561.083679 318.657410,560.731689 
	C322.134552,559.590271 325.151245,560.242004 326.584930,563.765747 
	C328.077301,567.433533 325.547058,569.760681 322.823212,571.552979 
	C310.330078,579.773804 296.802368,585.703857 282.265869,589.203552 
	C275.483459,590.836426 268.624573,592.247986 261.596741,592.346375 
	C257.179993,592.408203 255.658875,594.351562 256.754333,598.726013 
	C257.393646,601.278870 257.261810,604.014038 257.690613,606.632263 
	C260.117340,621.448975 269.933319,629.712280 283.114136,634.747131 
	C291.333801,637.886963 300.214630,639.106018 308.087036,643.338928 
	C312.280182,645.593506 315.362701,648.564758 316.153168,653.452454 
	C316.721069,656.964172 315.814423,659.419617 311.747406,659.617004 
	C309.253693,659.738159 306.759308,659.973877 304.266266,659.960632 
	C275.949249,659.810059 247.632507,659.605042 219.315491,659.451050 
	C208.495178,659.392212 197.673965,659.479614 186.853958,659.396423 
	C181.448334,659.354858 179.809433,656.840881 181.431412,651.664246 
	C182.486938,648.295532 184.521301,645.916260 187.634033,644.220764 
	C194.574295,640.440125 202.111053,638.372864 209.625412,636.201904 
	C220.972748,632.923645 230.113998,626.680298 235.830154,616.115540 
	C239.087158,610.095886 239.484344,603.427002 239.684769,596.729919 
	C239.782166,593.475586 238.374252,592.599854 235.279327,592.227966 
	C208.403137,588.999207 184.050751,579.444458 162.878296,562.394714 
	C150.566406,552.480164 140.456772,540.587463 132.219818,526.646790 
M172.031784,532.468994 
	C146.400879,504.360107 136.886185,471.546326 143.741241,434.156647 
	C147.455215,413.899414 155.913635,395.846527 170.270691,380.799866 
	C171.756226,379.242950 173.623764,377.672638 172.343674,375.184937 
	C170.461197,371.526520 168.781403,367.706604 165.050064,364.063568 
	C137.692917,389.390869 125.275146,420.594421 126.010025,457.232727 
	C127.071777,510.167389 151.815216,548.667542 199.634750,570.576782 
	C234.688004,586.637024 270.490967,585.498901 305.080688,567.497253 
	C304.651459,564.082397 303.052399,562.272278 301.988831,560.239258 
	C298.451782,553.478149 298.428009,553.560242 291.516541,556.499451 
	C272.510101,564.582397 252.788437,567.112366 232.390091,563.754089 
	C209.147827,559.927490 189.254868,549.507874 172.031784,532.468994 
M237.040543,461.512390 
	C238.755463,460.493866 240.436996,459.412903 242.194016,458.473053 
	C244.258774,457.368530 244.497284,455.921143 243.428970,453.954620 
	C238.351562,444.608032 233.305695,435.244293 228.264893,425.877869 
	C227.022461,423.569275 225.489899,422.865387 223.020203,424.324280 
	C214.146881,429.565979 205.252151,434.774902 196.273392,439.832642 
	C193.387726,441.458099 192.866043,443.501770 193.776016,446.454010 
	C196.669479,455.841156 200.164719,464.975861 204.475281,473.814819 
	C206.080612,477.106628 207.874268,477.733795 211.102829,475.882568 
	C219.465729,471.087402 227.961945,466.524719 237.040543,461.512390 
M213.771667,489.104187 
	C219.301559,499.065918 226.365372,507.890137 233.886826,516.388733 
	C235.739243,518.481750 237.509018,518.824463 239.967377,517.386047 
	C248.303467,512.508606 256.687775,507.710999 265.121948,503.005219 
	C268.306458,501.228424 268.617249,499.235321 266.867462,496.119629 
	C262.058167,487.556244 257.359070,478.923889 252.898331,470.175079 
	C251.041779,466.533844 249.096634,466.425018 245.860947,468.337799 
	C236.544708,473.845215 227.072418,479.088104 217.718201,484.532440 
	C216.087219,485.481689 213.852463,485.992004 213.771667,489.104187 
M290.305115,430.983704 
	C290.346893,430.497070 290.587280,429.911621 290.401550,429.538147 
	C285.190613,419.059418 278.479126,409.618195 270.596924,400.985901 
	C268.734375,398.946075 266.813507,399.447723 264.777954,400.606506 
	C256.261475,405.454895 247.750748,410.313751 239.207581,415.114807 
	C237.116669,416.289825 236.335709,417.724884 237.552521,419.973572 
	C242.691315,429.470123 247.809250,438.977997 252.942169,448.477722 
	C254.117065,450.652161 255.677032,451.038635 257.876709,449.775543 
	C268.531036,443.657623 279.226868,437.611938 290.305115,430.983704 
M303.696625,460.682465 
	C302.023529,455.806976 300.322754,450.940765 298.685760,446.053162 
	C297.281891,441.861450 295.143707,440.443237 290.953461,443.175476 
	C286.919312,445.805878 282.515259,447.861877 278.342865,450.289032 
	C272.357666,453.770782 266.098572,456.830292 260.386658,461.098785 
	C266.077667,471.590576 271.570984,481.658508 276.996429,491.762909 
	C278.314728,494.218048 279.898041,494.513672 282.287689,493.209534 
	C289.592194,489.223114 296.942535,485.317902 304.332916,481.492920 
	C307.135559,480.042328 308.159515,478.087860 307.307922,474.991852 
	C306.074829,470.508820 305.015564,465.977966 303.696625,460.682465 
M213.088379,508.358276 
	C210.251007,504.264679 207.407394,500.175385 204.579590,496.075134 
	C203.589890,494.640076 202.530533,493.240570 200.547577,494.323517 
	C190.543442,499.786957 180.564804,505.297028 170.725998,510.708893 
	C171.013489,511.945068 170.999680,512.503784 171.253006,512.885071 
	C178.362366,523.583069 187.481934,532.120300 198.693420,538.425049 
	C200.274811,539.314331 201.486313,538.765076 202.850204,537.999817 
	C209.511002,534.262756 216.173309,530.526550 222.893509,526.898193 
	C225.890961,525.279846 226.071533,523.540039 223.860886,521.053162 
	C220.333450,517.084839 216.962463,512.977478 213.088379,508.358276 
M153.357025,468.684326 
	C154.699936,478.994995 157.633118,488.819946 162.171936,498.186188 
	C163.472672,500.870361 164.739334,502.129730 167.851624,500.280853 
	C176.011261,495.433624 184.274597,490.753479 192.603668,486.202667 
	C195.892532,484.405670 196.740601,482.397583 194.914017,479.005005 
	C190.720459,471.216156 187.646057,462.948059 184.795715,454.586090 
	C183.112289,449.647552 181.426346,448.965271 177.067963,451.495453 
	C170.154755,455.508881 163.331680,459.678497 156.500183,463.830902 
	C154.968155,464.762085 153.165176,465.591766 153.357025,468.684326 
M322.519806,471.637451 
	C328.671661,468.343628 334.804047,465.012726 340.984436,461.773315 
	C343.639343,460.381744 344.785126,458.363953 344.695099,455.339325 
	C344.432526,446.513611 343.371918,437.821411 340.798370,429.354401 
	C339.666077,425.629120 339.079376,421.639404 336.002808,418.416534 
	C326.860992,423.500244 317.895782,428.529846 308.881378,433.469666 
	C306.419525,434.818726 306.442169,436.557312 307.264984,438.895996 
	C309.577148,445.468018 311.810303,452.071045 313.900543,458.716583 
	C314.992798,462.189270 315.449707,465.877106 316.712036,469.275208 
	C317.463837,471.299011 318.485046,474.461365 322.519806,471.637451 
M323.823578,395.662689 
	C319.122040,389.610443 314.051331,383.921875 307.768097,379.436707 
	C306.443787,378.491425 305.275452,377.319000 303.337219,378.477142 
	C296.214325,382.733215 289.004944,386.844086 281.861145,391.065582 
	C279.950958,392.194366 278.750580,393.620789 280.610077,395.869019 
	C287.500854,404.200439 293.612091,413.087769 299.358429,422.236633 
	C300.256653,423.666718 301.433014,425.123322 303.405609,424.129608 
	C312.999878,419.296326 322.422913,414.156372 331.672638,408.459686 
	C329.910461,403.561890 326.914703,399.993073 323.823578,395.662689 
M208.315247,390.114319 
	C206.199493,386.339264 204.163040,382.490875 201.065048,379.403473 
	C197.779861,376.129486 195.029846,376.397858 192.467743,380.205719 
	C190.409775,383.264343 188.928543,386.601471 188.259171,390.259613 
	C186.039017,402.393036 187.516251,414.416779 189.399933,426.415924 
	C189.911163,429.672455 191.923798,430.024017 194.498108,428.522949 
	C202.257355,423.998688 209.962921,419.380859 217.766708,414.935242 
	C220.612549,413.314056 220.841614,411.538635 219.224564,408.856567 
	C215.618439,402.875488 212.198639,396.782074 208.315247,390.114319 
M245.623322,378.882233 
	C239.805267,375.310333 233.810791,372.109192 227.294586,369.963013 
	C222.658524,368.436096 217.946625,367.472565 213.092361,368.484924 
	C210.653732,368.993469 208.122467,370.306000 210.111725,373.244141 
	C216.922119,383.303101 222.600037,394.033386 228.982040,404.341492 
	C230.016129,406.011658 231.288528,407.199310 233.478653,405.939636 
	C240.968628,401.631775 248.533966,397.452332 255.964447,393.045013 
	C258.957794,391.269592 259.074890,388.819122 256.270966,386.644897 
	C252.991562,384.101990 249.577225,381.733032 245.623322,378.882233 
M174.796829,440.227997 
	C180.375305,438.220520 180.226074,433.819580 179.428207,429.146759 
	C177.747299,419.302338 176.772980,409.394226 176.642578,399.401917 
	C176.619614,397.641815 177.153519,395.688232 175.516449,394.255402 
	C164.036697,399.680756 149.061523,440.444244 154.871445,451.821838 
	C161.314529,448.082581 167.741119,444.352905 174.796829,440.227997 
M259.425476,536.058350 
	C260.735077,536.780334 262.018616,537.555237 263.358643,538.215515 
	C270.109711,541.542114 276.955811,544.468933 284.775696,543.677979 
	C290.169098,543.132385 291.480164,541.259949 289.026978,536.603882 
	C285.077972,529.108948 280.794189,521.791077 276.739105,514.350891 
	C275.237946,511.596527 273.451904,511.005280 270.688904,512.643250 
	C265.972107,515.439514 261.068542,517.924927 256.394409,520.787476 
	C253.239166,522.719849 249.476273,523.840576 246.587875,527.236328 
	C250.925293,530.238098 254.861404,532.962158 259.425476,536.058350 
M262.977875,359.479889 
	C253.762131,358.745087 244.488800,356.719818 234.849701,360.125702 
	C235.745026,361.120483 235.998184,361.625854 236.400375,361.815948 
	C247.881454,367.243347 258.528992,373.954773 268.209839,382.199158 
	C269.462555,383.266052 271.038116,384.125854 272.812500,383.282776 
	C279.969574,379.882294 286.777924,375.901306 294.158966,370.902496 
	C284.356995,364.453857 274.076599,362.092255 262.977875,359.479889 
M288.471405,513.151367 
	C292.547424,520.280090 295.265015,528.235657 301.108765,534.738953 
	C302.009674,533.790527 302.665009,533.286560 303.084259,532.631409 
	C310.418579,521.172607 310.611572,508.416351 309.687347,495.495178 
	C309.473724,492.508453 307.490143,492.541077 305.374573,493.640411 
	C300.204590,496.327057 295.160919,499.276428 289.890503,501.744324 
	C285.360504,503.865570 283.789886,506.445984 287.143616,510.772369 
	C287.546539,511.292114 287.798615,511.928833 288.471405,513.151367 
M237.570160,534.050903 
	C236.491348,533.314758 235.408340,532.063171 234.020935,532.793945 
	C226.788345,536.603088 219.618088,540.530701 212.071808,544.608582 
	C223.514023,553.544617 255.261444,557.437317 264.893036,551.027405 
	C255.178696,546.259094 246.108765,541.190552 237.570160,534.050903 
M323.430328,484.009949 
	C320.860748,485.167633 318.932587,486.509735 319.486420,489.983063 
	C320.803101,498.240173 320.591827,506.531372 319.561188,514.832031 
	C319.321716,516.760742 318.359863,518.992737 320.050934,520.952271 
	C320.704712,520.630371 321.262787,520.522583 321.560150,520.185059 
	C331.873627,508.479980 338.773346,495.005432 342.396454,479.841095 
	C342.726196,478.461060 342.653381,477.303558 341.363586,476.305359 
	C340.047546,475.286774 338.922455,475.626923 337.688324,476.294373 
	C333.153015,478.747131 328.611511,481.188477 323.430328,484.009949 
z"/>
<path fill="#000000" opacity="1.000000" stroke="none" 
	d="
M483.988220,353.915039 
	C487.650330,353.871521 490.814514,353.807861 493.978790,353.804108 
	C495.842438,353.801880 497.228119,354.380249 497.255981,356.627319 
	C497.278839,358.470581 496.952393,359.901733 494.767181,360.243774 
	C488.848389,361.170258 484.413727,364.853882 480.403992,368.807373 
	C473.528870,375.586151 467.081635,382.797241 460.385590,389.760345 
	C458.292542,391.936890 458.153351,393.889832 460.013367,396.330322 
	C470.106354,409.573303 480.088531,422.900726 490.171387,436.151489 
	C492.227722,438.853912 494.888733,440.886902 498.304321,441.621490 
	C500.785736,442.155182 501.514648,443.699554 501.198181,446.015503 
	C500.873474,448.391907 499.009583,448.214996 497.387299,448.222961 
	C487.059143,448.273743 476.730652,448.285034 466.402374,448.271667 
	C464.589417,448.269318 462.526459,448.443451 462.167847,445.883820 
	C461.823212,443.423889 463.450989,443.049072 465.429718,442.488739 
	C469.844604,441.238586 470.649689,438.911163 467.868652,435.088531 
	C461.109436,425.797699 454.184692,416.626343 447.242523,407.470612 
	C446.193268,406.086792 444.957031,404.128693 442.815369,405.041412 
	C440.996704,405.816528 441.339172,407.887115 441.389099,409.505341 
	C441.645477,417.813416 440.749298,426.136292 441.942352,434.439606 
	C442.578003,438.863403 444.736847,441.365601 449.219727,441.921051 
	C451.214111,442.168152 453.325378,442.513306 453.165985,445.371826 
	C452.980499,448.698944 450.471741,448.225800 448.387756,448.234283 
	C437.892914,448.276947 427.397552,448.287079 416.902924,448.224121 
	C414.859741,448.211884 412.219025,448.776825 411.896515,445.562653 
	C411.579376,442.401917 414.233368,442.360870 416.240509,441.871490 
	C422.427368,440.363098 424.551361,438.249878 424.593445,431.973419 
	C424.731934,411.317383 424.734131,390.659302 424.602478,370.003204 
	C424.558319,363.073700 423.148041,361.702911 415.891785,360.257355 
	C413.631165,359.806946 412.090759,358.977600 412.228180,356.447479 
	C412.366699,353.897125 414.221802,353.763489 416.169128,353.763519 
	C427.161804,353.763672 438.154449,353.738861 449.147125,353.746277 
	C450.835205,353.747437 452.691833,353.707001 452.677246,356.159515 
	C452.665497,358.128845 452.036682,359.515808 449.777924,360.164337 
	C442.431824,362.273468 441.403595,363.728607 441.363342,371.335358 
	C441.320435,379.445007 441.353668,387.555084 441.353668,395.665009 
	C441.768951,395.885986 442.184235,396.106995 442.599518,396.327972 
	C446.124298,392.745422 449.743378,389.250000 453.152435,385.560516 
	C458.690613,379.566711 464.126953,373.477386 469.536926,367.367004 
	C472.947662,363.514709 472.285767,361.504730 467.172699,360.275848 
	C464.849731,359.717499 462.952332,359.061066 463.350464,356.128113 
	C463.760712,353.106323 466.131683,353.782410 467.999146,353.775238 
	C473.162628,353.755341 478.326599,353.862854 483.988220,353.915039 
z"/>
<path fill="#000000" opacity="1.000000" stroke="none" 
	d="
M429.717285,479.602295 
	C439.306091,478.689911 448.398010,478.246521 457.561523,479.607941 
	C473.667511,482.000824 483.388641,495.585938 479.285797,510.390747 
	C477.329865,517.448547 473.810303,520.686340 461.818359,526.206482 
	C469.837982,535.859985 475.704376,546.907776 483.924774,556.276306 
	C485.983185,558.622253 488.811371,559.726501 491.741791,560.456604 
	C493.774506,560.963135 494.392731,562.125549 494.209656,564.079895 
	C494.010529,566.205505 492.495361,566.288940 490.967316,566.295410 
	C486.468872,566.314575 481.948303,566.548645 477.476746,566.192200 
	C470.843719,565.663391 466.166229,562.052307 462.809967,556.300598 
	C458.279266,548.536255 453.442627,540.949707 448.693909,533.313904 
	C447.907318,532.049072 447.036743,530.775208 445.959991,529.767151 
	C444.511749,528.411255 442.787933,526.939819 440.656219,527.894775 
	C438.789185,528.731201 439.333893,530.779358 439.322418,532.378967 
	C439.276978,538.710754 439.489532,545.049072 439.271729,551.373535 
	C439.091797,556.598755 441.390839,559.622375 446.398407,560.544983 
	C448.378754,560.909973 450.042236,561.225647 449.910675,563.743225 
	C449.769348,566.447205 447.763275,566.310730 445.926178,566.313843 
	C435.928040,566.330750 425.929749,566.332336 415.931671,566.294983 
	C414.134888,566.288330 412.096649,566.517578 411.844940,563.815857 
	C411.607819,561.270264 413.154816,560.870117 415.213928,560.598755 
	C420.216492,559.939331 422.951843,557.115540 422.943970,551.899780 
	C422.914215,532.239807 422.901459,512.579834 422.877228,492.919830 
	C422.871521,488.277405 420.383118,485.862427 415.912842,485.392975 
	C413.520050,485.141724 411.538239,484.572601 411.837708,481.586945 
	C412.166138,478.312469 414.746002,478.906616 416.798340,478.963440 
	C420.953644,479.078461 425.103638,479.385406 429.717285,479.602295 
M439.284454,492.697998 
	C439.286713,500.361084 439.275055,508.024200 439.295593,515.687256 
	C439.312439,521.966736 439.448792,522.070007 445.414276,521.030579 
	C446.070282,520.916138 446.730194,520.824219 447.387512,520.717041 
	C457.165375,519.122192 462.822113,512.275696 462.633759,502.265045 
	C462.459167,492.985748 456.066284,486.433990 446.199432,485.422302 
	C440.138702,484.800873 439.417236,485.462372 439.284454,492.697998 
z"/>
<path fill="#000000" opacity="1.000000" stroke="none" 
	d="
M731.188538,508.666199 
	C735.460999,507.073639 739.733215,506.891876 743.403809,507.927887 
	C750.852112,510.030121 758.130615,509.712830 765.590149,508.747589 
	C767.645569,508.481628 769.862793,508.108643 771.949890,508.922791 
	C771.949890,512.406189 771.949890,515.782715 771.949890,519.079407 
	C767.973145,520.257080 765.272705,517.239075 761.961060,517.276794 
	C766.382935,535.769043 757.349243,547.353027 737.805237,548.247498 
	C735.238220,548.364990 732.791077,548.710083 732.743225,551.696838 
	C732.696960,554.581177 735.153931,555.497620 737.640991,555.564392 
	C742.299500,555.689453 746.963379,555.608582 751.625061,555.623901 
	C761.396301,555.656067 767.457336,559.197937 770.014587,566.360413 
	C772.612122,573.635681 769.835144,582.625305 762.273987,587.772827 
	C750.427612,595.837708 737.420410,597.580078 723.807861,592.598511 
	C720.496643,591.386841 717.678345,589.275391 715.622742,586.281616 
	C711.215393,579.862732 712.163208,573.850220 718.613098,569.553650 
	C721.533752,567.608093 722.890259,566.244690 719.647705,563.182983 
	C716.064819,559.799927 716.628479,555.083130 720.420898,551.325623 
	C722.169495,549.593140 724.616638,548.611389 726.026001,546.060913 
	C725.294800,545.432739 724.623840,544.718811 723.828369,544.193298 
	C711.537964,536.074768 713.206848,518.686584 726.778259,510.790497 
	C728.069092,510.039490 729.449768,509.443054 731.188538,508.666199 
M736.555420,588.235535 
	C742.979370,589.262756 749.148376,588.637451 754.825317,585.230713 
	C758.050598,583.295288 760.158936,580.505737 759.486267,576.594360 
	C758.840881,572.842163 755.806335,571.343506 752.469116,570.343811 
	C746.924683,568.682739 741.244202,569.504578 735.618591,569.354187 
	C732.236267,569.263794 729.401550,570.387756 727.657288,573.475464 
	C725.763306,576.827881 726.919434,579.943420 728.690491,582.859192 
	C730.304138,585.515686 732.742554,587.218140 736.555420,588.235535 
M746.446289,519.329407 
	C744.831787,515.732727 742.376892,513.101746 738.135681,513.533630 
	C734.899963,513.863098 732.746277,516.013062 731.768616,519.098816 
	C729.778748,525.378845 730.594971,531.542664 733.200134,537.425293 
	C734.795654,541.028320 738.017578,542.395142 741.837769,541.749451 
	C745.603455,541.112976 747.486450,538.553162 747.795166,534.829468 
	C748.207092,529.861694 748.266296,524.911316 746.446289,519.329407 
z"/>
<path fill="#000000" opacity="1.000000" stroke="none" 
	d="
M595.597839,485.290894 
	C594.267578,484.897095 593.321594,484.547150 592.344543,484.390198 
	C590.823975,484.145844 589.907349,483.454712 589.897156,481.808594 
	C589.887878,480.315521 590.880127,479.873108 592.086243,479.556030 
	C599.274658,477.666534 606.458069,475.757904 613.562256,473.877106 
	C614.803955,475.944702 614.318237,477.810333 614.320618,479.589905 
	C614.350647,502.398529 614.339355,525.207153 614.340759,548.015808 
	C614.341003,552.816040 614.962646,557.177307 621.088684,557.753601 
	C622.800476,557.914612 623.090881,559.190308 623.215332,560.620361 
	C623.382568,562.541077 622.234741,563.305237 620.649658,563.700928 
	C614.382996,565.265259 608.111816,566.811646 601.915405,568.346558 
	C598.868103,562.264038 598.868103,562.264038 592.971924,565.516479 
	C581.552856,571.815430 566.901489,566.687561 560.605286,553.958069 
	C553.223999,539.034851 557.235352,513.707397 581.363037,508.250824 
	C585.818665,507.243195 590.275757,507.486023 594.739136,508.184448 
	C598.045593,508.701782 599.797241,507.554504 599.666931,503.926422 
	C599.523621,499.935913 599.611145,495.936157 599.642273,491.940765 
	C599.664856,489.044952 598.738342,486.723846 595.597839,485.290894 
M587.370789,513.576416 
	C581.983398,513.884155 578.524048,516.987854 576.133362,521.493042 
	C572.521606,528.299133 572.800293,535.657471 573.733521,542.923767 
	C574.396484,548.085938 576.323425,552.922180 580.724060,556.278259 
	C585.103577,559.618164 589.555359,559.036377 594.323792,556.919800 
	C598.679504,554.986389 599.946777,551.928711 599.723694,547.405579 
	C599.421021,541.268250 599.648743,535.104736 599.649597,528.952454 
	C599.650879,519.577026 597.045105,516.152771 587.370789,513.576416 
z"/>
<path fill="#000000" opacity="1.000000" stroke="none" 
	d="
M674.995239,417.000793 
	C674.976501,411.837891 674.942810,407.174713 674.936035,402.511444 
	C674.930542,398.734192 673.512817,396.018463 669.485779,395.358673 
	C667.641724,395.056610 666.328247,394.280457 666.106079,392.302582 
	C665.845886,389.985870 667.721802,389.595276 669.264160,389.139038 
	C675.927551,387.168030 682.618774,385.291351 689.188477,383.412170 
	C691.470215,386.019196 689.178711,389.388031 691.525513,391.843689 
	C694.726746,391.265259 696.595886,388.438385 699.148193,386.788849 
	C706.737488,381.883972 714.435059,381.348694 722.255676,385.714386 
	C729.672241,389.854492 732.583435,396.504211 732.383850,404.903870 
	C732.162292,414.225891 732.268066,423.558136 732.372559,432.884369 
	C732.423401,437.419159 733.221497,441.666199 738.864502,442.532806 
	C740.493103,442.782928 741.093384,443.781921 741.014404,445.339203 
	C740.923828,447.126038 740.038452,448.151764 738.218689,448.153717 
	C729.059082,448.163605 719.899414,448.162048 710.739990,448.116699 
	C709.356079,448.109863 708.058716,447.734222 707.843079,446.005859 
	C707.639282,444.371826 707.866638,443.029541 709.823059,442.608948 
	C715.831970,441.316986 716.312378,436.504242 716.337158,431.752411 
	C716.380615,423.429504 716.180176,415.102112 715.917175,406.781799 
	C715.707886,400.159607 712.923218,396.460236 707.321716,394.847626 
	C702.973083,393.595673 694.814880,396.804413 692.230164,400.708771 
	C691.225342,402.226593 691.364685,403.884644 691.362488,405.532776 
	C691.350281,414.527008 691.401001,423.521423 691.357422,432.515411 
	C691.333679,437.409271 692.324768,441.526550 698.031494,442.591553 
	C699.934387,442.946655 700.277466,444.308990 700.100464,445.972473 
	C699.918701,447.680328 698.731018,448.153778 697.289062,448.158752 
	C687.962585,448.190979 678.635864,448.187805 669.309265,448.201721 
	C667.517578,448.204376 666.518921,447.355011 666.346130,445.549927 
	C666.169189,443.701721 667.105774,442.830872 668.830994,442.460785 
	C673.395081,441.481720 674.887939,438.287476 674.885986,433.987854 
	C674.883545,428.492035 674.953308,422.996246 674.995239,417.000793 
z"/>
<path fill="#000000" opacity="1.000000" stroke="none" 
	d="
M555.322510,426.927155 
	C555.339600,429.744446 555.192322,432.090546 555.408508,434.402710 
	C555.786804,438.447754 558.221008,439.719513 561.475403,437.556183 
	C562.875366,436.625519 563.975220,435.132812 565.770569,436.627563 
	C567.853027,438.361359 566.029114,439.894806 565.443481,441.491760 
	C562.137085,450.508606 547.137817,453.905975 540.152344,442.049042 
	C537.748779,442.437866 536.135010,444.250458 534.275330,445.555450 
	C529.205627,449.113007 523.532471,450.039398 517.612732,449.229218 
	C506.342377,447.686798 501.440125,434.167694 508.684540,424.788177 
	C513.726257,418.260559 521.130005,415.567902 528.519653,412.906281 
	C528.985840,412.738342 529.547363,412.780212 529.967773,412.548645 
	C532.746216,411.018280 537.575806,412.328522 538.347107,408.398315 
	C539.441101,402.823303 539.097778,397.016205 534.834900,392.409576 
	C530.769470,388.016357 525.861755,388.810120 523.269714,394.272095 
	C522.492004,395.910889 522.022278,397.703766 521.494568,399.451141 
	C520.905823,401.400543 520.129395,403.287659 518.508667,404.540039 
	C515.591675,406.794006 512.263794,408.262329 508.928101,405.735870 
	C505.582275,403.201782 505.694153,399.312897 507.619110,396.258331 
	C515.451233,383.830170 536.081543,376.982330 549.013000,388.298126 
	C553.193176,391.956055 555.291443,396.835510 555.315857,402.463959 
	C555.350525,410.456055 555.322876,418.448456 555.322510,426.927155 
M528.483948,420.883423 
	C525.684021,422.730042 523.132751,424.779968 521.962646,428.118317 
	C520.362366,432.683685 522.191101,437.218933 526.145935,438.343781 
	C529.679077,439.348694 538.155090,435.820465 538.405762,432.813690 
	C538.812073,427.938232 538.515137,423.004150 538.515137,418.039276 
	C534.619385,417.497192 531.924805,419.207855 528.483948,420.883423 
z"/>
<path fill="#000000" opacity="1.000000" stroke="none" 
	d="
M784.120178,384.465637 
	C792.710266,388.376587 796.216492,395.039368 796.244995,403.802185 
	C796.275818,413.294464 796.204712,422.787292 796.275391,432.279175 
	C796.324646,438.895721 797.773804,439.781586 803.385681,436.656158 
	C804.597595,435.981201 805.526184,435.795044 806.489075,436.760681 
	C807.661926,437.936981 807.129028,439.209930 806.520508,440.433258 
	C804.289307,444.918762 801.453003,448.725525 795.968262,449.309082 
	C790.322083,449.909821 785.305725,448.942047 782.221313,443.458344 
	C781.905457,442.896637 781.467712,442.403473 781.096375,441.892090 
	C778.933899,441.955811 777.764648,443.517242 776.338318,444.573761 
	C771.766602,447.960114 766.767456,449.711792 760.977112,449.420715 
	C755.154114,449.127991 750.607788,446.760956 747.949585,441.630280 
	C745.107178,436.144348 745.772095,430.656586 749.334595,425.610840 
	C755.013916,417.566772 763.758362,414.715454 772.597107,412.108398 
	C779.940735,409.942291 779.907288,410.002899 779.674316,402.316681 
	C779.612000,400.261047 779.140747,398.332062 778.361816,396.514771 
	C776.790161,392.847412 774.472717,389.428131 770.085815,389.642578 
	C765.813599,389.851379 764.176147,393.437134 763.224609,397.185883 
	C762.266418,400.961304 761.170715,404.630310 757.006714,406.209656 
	C754.324829,407.226776 751.742188,407.254578 749.535034,405.225128 
	C747.285889,403.157104 747.294983,400.484436 748.133911,397.821503 
	C748.902100,395.383301 750.528015,393.449280 752.424988,391.779236 
	C761.541931,383.752869 771.759888,380.292908 784.120178,384.465637 
M770.869568,438.316254 
	C773.946899,436.890411 778.496704,436.795685 779.272583,432.961853 
	C780.265381,428.056366 779.897705,422.879578 779.338989,417.822205 
	C772.906982,418.508026 766.590576,421.962646 764.063293,425.985962 
	C762.290710,428.807922 761.655090,431.783356 763.192627,434.950317 
	C764.613770,437.877533 766.969910,438.979584 770.869568,438.316254 
z"/>
<path fill="#000000" opacity="1.000000" stroke="none" 
	d="
M800.600830,567.877014 
	C790.347717,565.467651 785.701294,559.753296 785.658569,549.811462 
	C785.623535,541.653259 785.744690,533.493103 785.601074,525.337280 
	C785.526428,521.101440 785.225098,516.800781 779.532166,516.031677 
	C777.697815,515.783875 777.260010,514.234619 777.399353,512.606812 
	C777.552856,510.812988 778.987427,510.734222 780.338867,510.600311 
	C785.955139,510.043793 791.566772,509.435059 797.188721,508.943878 
	C800.305298,508.671539 800.081604,511.068024 800.090820,513.027100 
	C800.139343,523.349609 800.114014,533.672363 800.139465,543.995056 
	C800.144775,546.158264 800.113892,548.336609 800.346069,550.481323 
	C800.906921,555.663269 804.796204,558.906250 809.895020,558.608276 
	C816.309692,558.233398 820.668030,554.576233 820.696838,549.382446 
	C820.745850,540.558533 820.713623,531.733948 820.680725,522.909851 
	C820.668884,519.726746 820.140320,516.828735 816.189575,516.280151 
	C812.934448,515.828125 813.387817,513.649109 813.957947,510.972046 
	C820.739319,510.308685 827.587036,509.638855 834.271606,508.984985 
	C835.766663,511.107300 835.314880,513.169312 835.321899,515.117859 
	C835.365173,527.105469 835.436584,539.094421 835.285339,551.080261 
	C835.233276,555.205811 836.132385,558.017029 840.944153,557.837830 
	C842.746887,557.770569 843.724365,558.720947 843.970276,560.460571 
	C844.248413,562.428284 843.375671,563.766113 841.487061,564.177429 
	C835.216187,565.543152 829.032288,567.424927 822.816467,567.842468 
	C820.929810,566.009216 822.362915,563.597656 820.622620,561.586792 
	C814.787231,565.616272 808.633972,569.249817 800.600830,567.877014 
z"/>
<path fill="#000000" opacity="1.000000" stroke="none" 
	d="
M547.964844,552.695068 
	C535.781006,571.871216 510.848236,573.581116 497.689453,556.464172 
	C490.570923,547.204407 490.017761,531.842407 496.416321,521.103638 
	C502.270355,511.278809 515.020569,505.780731 527.119934,507.863831 
	C539.629517,510.017487 548.488525,518.351624 550.879761,530.992249 
	C552.258057,538.277893 551.752197,545.585388 547.964844,552.695068 
M518.926941,560.724670 
	C524.747559,562.438171 529.428101,561.021667 531.891724,555.637939 
	C537.391113,543.620239 537.203430,531.462036 530.867554,519.735779 
	C528.805054,515.918518 525.264099,513.267029 520.727478,513.558716 
	C516.034668,513.860413 512.812012,516.857544 511.015900,521.146301 
	C507.043823,530.630554 507.650879,540.276062 510.337189,549.927185 
	C511.590210,554.429077 514.137573,558.024841 518.926941,560.724670 
z"/>
<path fill="#000000" opacity="1.000000" stroke="none" 
	d="
M858.224609,512.091675 
	C872.364075,503.932465 887.455139,507.111816 894.135071,519.398315 
	C894.609802,520.271484 895.020142,521.187256 895.377930,522.115051 
	C899.395020,532.530212 898.307922,534.144714 887.359314,534.131958 
	C880.203186,534.123596 873.046631,534.094666 865.891174,534.167664 
	C860.380798,534.223938 859.460205,535.361328 860.616394,540.798889 
	C862.119812,547.869568 864.659424,554.545776 872.191711,557.049744 
	C879.768555,559.568665 886.213806,556.849365 891.512146,551.113892 
	C891.941345,550.649231 892.566345,550.365356 893.168091,549.950745 
	C897.024963,552.027100 896.982239,554.399536 894.481750,557.567078 
	C881.953552,573.437866 858.525879,571.188782 849.287170,553.158630 
	C841.982544,538.902954 845.628174,521.638977 858.224609,512.091675 
M879.599243,526.481506 
	C882.726807,524.944336 881.931580,522.394592 881.039368,520.067139 
	C879.241943,515.377930 874.624939,512.586792 870.516724,513.462036 
	C865.964111,514.431885 862.104553,520.421326 862.398743,526.220642 
	C867.822449,527.101257 873.300293,526.721191 879.599243,526.481506 
z"/>
<path fill="#000000" opacity="1.000000" stroke="none" 
	d="
M569.402954,390.489258 
	C577.204956,387.252563 585.018494,385.239960 592.960083,383.300720 
	C595.043030,387.022186 593.291504,390.890442 594.844116,394.722290 
	C597.348999,391.903229 599.467102,389.163788 601.944275,386.800720 
	C608.366394,380.674652 618.566956,382.945038 620.913635,390.956268 
	C622.052185,394.843048 621.110596,398.304962 617.793884,400.722870 
	C614.758362,402.935791 611.567383,402.710205 608.560425,400.416962 
	C606.543640,398.878815 604.833496,395.852936 601.780457,397.919403 
	C598.348328,400.242432 594.629944,402.902740 594.475708,407.476074 
	C594.167358,416.619720 594.313171,425.782318 594.430481,434.935028 
	C594.484985,439.188049 596.950928,441.670319 601.071350,442.428650 
	C603.133728,442.808197 604.520142,443.532043 604.141357,445.980011 
	C603.776062,448.341492 601.965332,448.192230 600.333679,448.197937 
	C591.345947,448.229340 582.358032,448.217438 573.370178,448.194000 
	C571.643494,448.189484 570.011108,448.016693 569.758850,445.713409 
	C569.526306,443.589996 570.676941,442.707764 572.491455,442.262360 
	C576.608093,441.251801 577.951538,438.300934 577.950317,434.418091 
	C577.947083,423.933472 577.975037,413.448669 577.927124,402.964264 
	C577.908569,398.894836 576.522034,395.850189 571.891785,395.208832 
	C569.451416,394.870850 568.612183,393.188019 569.402954,390.489258 
z"/>
<path fill="#000000" opacity="1.000000" stroke="none" 
	d="
M943.620361,542.799683 
	C948.082520,558.587463 936.604675,570.404602 919.568420,568.098877 
	C919.075317,568.032104 918.590149,567.905518 918.102600,567.800354 
	C902.524658,564.441345 906.192261,566.302979 905.687622,552.389038 
	C905.628235,550.751648 904.927673,548.449951 907.601685,547.946045 
	C909.981201,547.497620 910.681946,549.298706 911.413879,551.055115 
	C913.070190,555.029907 915.790588,558.085938 919.565918,560.182861 
	C921.184082,561.081604 922.869751,561.626282 924.766418,561.718689 
	C928.131592,561.882812 930.584290,560.665588 932.021118,557.564331 
	C933.420227,554.544312 932.334656,552.031433 930.298767,549.819702 
	C927.389526,546.659180 923.320984,545.387329 919.626892,543.520935 
	C915.441650,541.406372 911.344421,539.146179 908.545532,535.234985 
	C900.831726,524.455322 907.507690,510.069794 921.307434,507.850800 
	C927.346863,506.879700 933.206665,508.276398 939.021362,509.792236 
	C940.841919,510.266785 941.276306,511.557587 941.299744,513.172424 
	C941.343140,516.167480 941.365540,519.162903 941.412964,522.157898 
	C941.434631,523.522766 941.542236,524.920044 939.670166,525.172668 
	C938.184570,525.373291 937.125854,524.846619 936.443115,523.444397 
	C934.974731,520.428345 933.253113,517.619324 930.257629,515.802185 
	C925.500000,512.916138 920.593689,513.443481 918.304565,517.166077 
	C916.063416,520.810669 917.589722,524.889038 922.628235,527.802551 
	C926.364685,529.963135 930.330933,531.722839 934.155396,533.735840 
	C938.038635,535.779785 941.534851,538.275208 943.620361,542.799683 
z"/>
<path fill="#000000" opacity="1.000000" stroke="none" 
	d="
M604.278687,616.968018 
	C607.678406,617.082825 610.666138,617.401489 613.639099,617.296997 
	C616.042969,617.212585 616.771118,618.661133 617.514282,620.421143 
	C620.037109,626.396667 622.625610,632.344604 625.131104,638.327393 
	C625.868164,640.087402 626.720886,641.920288 628.755249,642.032837 
	C631.158936,642.165833 631.309631,639.788147 631.948914,638.181763 
	C634.397339,632.029480 638.043518,626.317871 638.826782,619.547302 
	C639.018433,617.890564 640.291443,617.378784 641.684631,617.316162 
	C644.839050,617.174377 647.999207,617.109741 651.156799,617.117615 
	C652.298157,617.120483 653.614807,617.223572 654.018250,618.613770 
	C654.405640,619.948669 653.699097,620.780457 652.471497,621.329041 
	C649.728027,622.554871 649.297546,625.046326 649.391418,627.611389 
	C649.677002,635.416565 649.908508,643.231201 650.532593,651.012390 
	C650.757690,653.818787 650.927063,657.189941 654.822144,658.090332 
	C655.866211,658.331665 656.411499,659.240112 656.304993,660.392517 
	C656.161560,661.944336 655.014160,662.207397 653.798584,662.213562 
	C648.806458,662.238708 643.813843,662.240112 638.822021,662.190552 
	C637.680908,662.179199 636.372192,662.153015 636.085083,660.625671 
	C635.856506,659.409546 636.726318,658.820129 637.656799,658.385681 
	C640.572937,657.024109 640.986328,654.464478 640.890198,651.677063 
	C640.711914,646.507568 640.501160,641.339233 639.639771,636.105835 
	C633.429626,644.079285 632.361816,654.495239 625.431091,663.392395 
	C621.159363,653.717957 617.445374,645.306641 613.754333,636.947449 
	C610.948303,637.644714 611.388916,639.557190 611.285156,641.103271 
	C611.062439,644.421509 611.050232,647.755432 610.772766,651.067932 
	C610.516418,654.127136 610.887024,656.713196 614.197205,657.978394 
	C615.377197,658.429443 616.170227,659.383789 615.839844,660.706970 
	C615.487671,662.117004 614.184265,662.183594 613.008667,662.190979 
	C609.680542,662.211975 606.351868,662.207764 603.023987,662.165955 
	C601.865723,662.151428 600.576172,662.147339 600.100403,660.782288 
	C599.629272,659.430786 600.397461,658.496033 601.550049,657.997864 
	C605.129944,656.450562 605.347595,653.141907 605.579529,650.032043 
	C606.123779,642.738220 606.380737,635.423340 606.860046,628.123962 
	C607.059204,625.092041 606.719055,622.688171 603.494507,621.137146 
	C601.018311,619.946167 601.044495,618.143005 604.278687,616.968018 
z"/>
<path fill="#000000" opacity="1.000000" stroke="none" 
	d="
M674.286377,518.646484 
	C671.371582,525.233154 667.303589,526.846497 662.573486,523.795166 
	C660.774597,522.634705 659.455872,519.638733 656.675476,521.498230 
	C653.917847,523.342590 650.700073,525.481567 650.554443,528.982605 
	C650.194946,537.621277 650.274048,546.294556 650.608887,554.937195 
	C650.732117,558.116333 652.848022,560.423645 656.430786,560.758362 
	C658.464294,560.948364 660.033447,561.790527 659.809570,564.178101 
	C659.581665,566.608948 657.598450,566.299805 656.002136,566.308289 
	C647.510437,566.353577 639.018188,566.361023 630.526489,566.315186 
	C628.909607,566.306519 627.038147,566.442200 626.801758,564.019165 
	C626.597229,561.923706 627.678650,561.019531 629.603333,560.656921 
	C634.008118,559.827087 635.544128,556.659851 635.594971,552.655212 
	C635.700684,544.330994 635.694214,536.003784 635.599976,527.679260 
	C635.550720,523.330566 634.006531,519.888794 629.248352,518.751282 
	C627.927429,518.435486 626.824829,517.733704 626.779541,516.049316 
	C626.736816,514.459167 627.492065,513.457581 628.891296,513.058472 
	C635.401672,511.201202 641.933350,509.418793 648.369385,507.634033 
	C650.519531,510.682037 648.028259,514.360229 650.761902,517.038818 
	C653.370605,515.614258 654.563049,512.909363 656.516541,510.966034 
	C659.941528,507.558807 663.937378,506.742432 668.431763,508.430603 
	C672.961609,510.132080 674.809570,513.488037 674.286377,518.646484 
z"/>
<path fill="#000000" opacity="1.000000" stroke="none" 
	d="
M652.802307,437.839722 
	C653.856262,440.436676 655.558472,441.565735 657.866089,441.974731 
	C659.792542,442.316132 661.365417,442.999512 661.237488,445.463959 
	C661.099304,448.124817 659.240845,448.195740 657.360413,448.202393 
	C648.367676,448.234161 639.374817,448.240021 630.381958,448.224213 
	C628.677795,448.221191 626.994995,448.135773 626.773987,445.778259 
	C626.574585,443.651520 627.690857,442.805664 629.556885,442.401184 
	C634.172913,441.400604 635.540344,437.920959 635.587036,433.822815 
	C635.704590,423.498840 635.661926,413.172577 635.619934,402.847504 
	C635.603943,398.917847 633.962952,396.099976 629.805237,395.318481 
	C628.220520,395.020599 626.919250,394.479553 626.763977,392.597534 
	C626.643982,391.143890 626.949646,389.872589 628.486328,389.391876 
	C636.047852,387.026306 643.623901,384.706970 652.636230,381.926636 
	C652.636230,401.047241 652.636230,419.257019 652.802307,437.839722 
z"/>
<path fill="#000000" opacity="1.000000" stroke="none" 
	d="
M493.513519,629.911621 
	C498.938934,648.736389 488.828674,662.277161 469.724823,662.319275 
	C463.893829,662.332092 458.062317,662.300476 452.231964,662.221191 
	C450.971893,662.204102 449.373474,662.441284 449.024017,660.627258 
	C448.720215,659.050049 450.115601,658.753418 451.132660,658.292542 
	C453.795807,657.085571 454.563477,654.866455 454.563721,652.177246 
	C454.564484,644.013733 454.609680,635.850159 454.572205,627.686829 
	C454.559204,624.854980 453.723633,622.376160 450.719177,621.344360 
	C449.451996,620.909180 448.667389,620.247559 448.901917,618.828674 
	C449.147308,617.344360 450.357544,617.058960 451.530426,617.069397 
	C460.666840,617.150574 469.864929,616.190186 478.891663,618.345276 
	C485.362488,619.890259 490.478760,623.301392 493.513519,629.911621 
M481.427979,628.203796 
	C478.930725,624.254272 475.026611,622.506470 470.703339,621.594727 
	C465.731140,620.546143 464.366028,621.680908 464.330688,626.763733 
	C464.277527,634.407227 464.277649,642.051758 464.339355,649.695190 
	C464.400787,657.304016 468.412933,659.847534 475.425507,656.787781 
	C479.142212,655.166077 481.560394,652.313904 482.928894,648.557373 
	C485.377289,641.836670 485.343231,635.239380 481.427979,628.203796 
z"/>
<path fill="#000000" opacity="1.000000" stroke="none" 
	d="
M687.584839,534.133057 
	C687.471191,531.159241 687.374634,528.665222 687.244202,526.173035 
	C687.054993,522.556946 685.853210,519.725220 681.872314,518.788452 
	C680.427551,518.448547 678.981934,517.792664 678.950806,515.866760 
	C678.914368,513.609497 680.684326,513.296204 682.251221,512.779175 
	C688.515564,510.712372 694.783936,508.657806 700.892761,506.650604 
	C702.785706,508.785004 702.209167,510.866028 702.216797,512.775024 
	C702.269043,525.938232 702.249817,539.101807 702.242859,552.265259 
	C702.240723,556.374207 702.922852,559.961121 707.887268,560.857544 
	C709.696533,561.184204 710.176331,562.618530 709.945740,564.294312 
	C709.705994,566.036499 708.365662,566.277588 706.976990,566.280701 
	C698.646057,566.299194 690.315186,566.296936 681.984253,566.276917 
	C680.577637,566.273560 679.288208,565.964539 679.046326,564.242249 
	C678.806213,562.532898 679.358582,561.118896 681.159668,560.861267 
	C687.049377,560.018860 687.320251,555.436157 687.526184,551.106628 
	C687.787109,545.620422 687.587708,540.112305 687.584839,534.133057 
z"/>
<path fill="#000000" opacity="1.000000" stroke="none" 
	d="
M587.256348,645.818115 
	C582.605835,658.666992 571.559021,665.357300 559.610107,662.922668 
	C548.081238,660.573669 540.929138,652.031677 540.784607,640.438782 
	C540.645508,629.286682 548.032104,619.493530 558.636047,616.771362 
	C576.723999,612.128052 591.478210,626.854065 587.256348,645.818115 
M555.128967,625.701477 
	C550.756531,634.639038 550.630859,643.664673 555.256958,652.448425 
	C557.383850,656.486938 561.212891,658.832153 565.958557,658.543945 
	C570.851746,658.246765 573.895203,654.979187 575.379272,650.705078 
	C577.908447,643.421570 577.963257,635.887390 574.836548,628.792908 
	C570.944153,619.961182 562.142517,618.450378 555.128967,625.701477 
z"/>
<path fill="#000000" opacity="1.000000" stroke="none" 
	d="
M691.420105,661.711243 
	C690.482117,660.243774 690.664490,659.094849 691.905762,658.496033 
	C695.398987,656.810913 694.760803,654.241577 693.844604,651.316284 
	C692.822754,648.053589 690.705261,646.925781 687.481201,646.969482 
	C683.220093,647.027283 678.529236,645.898926 677.356445,652.132935 
	C676.937988,654.356934 676.373108,656.351990 678.718018,657.868958 
	C679.744141,658.532837 680.375916,659.588440 679.965637,660.870178 
	C679.512024,662.287476 678.197266,662.217285 677.054504,662.223206 
	C674.225342,662.237793 671.375977,662.370483 668.572021,662.087036 
	C665.856750,661.812439 664.712158,659.824951 667.064758,658.154907 
	C671.704895,654.860962 673.059448,649.915588 674.809082,645.108948 
	C677.481201,637.768188 680.269775,630.453125 682.506531,622.976807 
	C683.883789,618.373474 688.182251,619.192444 691.023376,616.345886 
	C694.661072,626.366882 697.827515,635.597839 701.380066,644.677795 
	C703.380310,649.790039 703.916199,655.958191 710.007629,658.613464 
	C710.852600,658.981812 711.180237,659.809692 710.968994,660.698853 
	C710.614197,662.191956 709.315186,662.206970 708.174866,662.197144 
	C702.690857,662.150146 697.207336,662.035889 691.420105,661.711243 
M683.355652,641.848572 
	C685.413818,641.870056 688.496033,643.074280 689.039307,640.558655 
	C689.652893,637.717590 688.776733,634.445190 685.494385,632.285339 
	C683.673096,635.349182 680.868469,637.729797 683.355652,641.848572 
z"/>
<path fill="#000000" opacity="1.000000" stroke="none" 
	d="
M725.259155,648.952820 
	C727.119202,652.531433 728.790161,655.832886 732.261414,657.613037 
	C735.804932,659.430237 739.260742,659.230347 741.519104,655.789917 
	C743.741638,652.404114 742.977905,648.904480 739.634705,646.578064 
	C736.786987,644.596436 733.543030,643.191711 730.517212,641.456970 
	C723.722229,637.561401 721.029602,631.481628 723.283813,625.260254 
	C725.421021,619.361816 732.767395,615.265625 739.491882,616.231079 
	C740.314148,616.349182 741.128479,616.521362 741.949219,616.651245 
	C749.661560,617.872070 751.671204,622.143799 748.002502,629.555237 
	C745.841614,629.920837 745.743530,628.011169 745.080994,626.813354 
	C743.751465,624.409912 742.089355,622.285645 739.404175,621.485535 
	C736.396057,620.589172 733.326050,620.517700 731.470154,623.714417 
	C729.492065,627.121460 731.522583,629.556946 734.096130,631.290039 
	C736.836182,633.135437 739.951538,634.415894 742.864441,636.013550 
	C749.787292,639.810425 752.598572,645.377930 750.967041,651.942993 
	C749.342407,658.480347 743.568604,662.938843 736.220215,663.184937 
	C732.530273,663.308533 728.949646,662.452942 725.443909,661.403748 
	C722.199158,660.432678 719.962524,650.362183 722.502319,648.091797 
	C723.299072,647.379578 724.389343,647.685913 725.259155,648.952820 
z"/>
<path fill="#000000" opacity="1.000000" stroke="none" 
	d="
M509.636444,621.381104 
	C507.750458,620.996094 506.693939,620.215027 507.161346,618.572693 
	C507.538666,617.246887 508.835632,616.983154 510.028778,617.152039 
	C515.490112,617.925171 520.966125,617.593201 526.441040,617.494385 
	C527.479431,617.475647 528.563843,617.647766 528.846130,618.803284 
	C529.186707,620.196655 528.357117,620.997925 527.034058,621.253784 
	C523.593872,621.919128 523.245056,624.448425 523.256653,627.294434 
	C523.289856,635.432312 523.322205,643.570862 523.248352,651.708130 
	C523.219360,654.901794 523.489868,657.750732 527.249512,658.723511 
	C528.088623,658.940613 528.765808,659.414673 528.776917,660.412842 
	C528.787903,661.394165 528.205261,662.070801 527.313049,662.079224 
	C520.718262,662.141541 514.098938,662.957581 507.549408,661.541016 
	C507.351105,661.498108 507.253143,660.991028 506.796875,660.074768 
	C515.868530,656.922729 512.650574,649.129761 513.031860,642.647217 
	C513.323853,637.682678 513.147156,632.684082 513.024963,627.704407 
	C512.964844,625.251709 513.042786,622.570862 509.636444,621.381104 
z"/>
<path fill="#000000" opacity="1.000000" stroke="none" 
	d="
M435.472534,617.358154 
	C437.762817,619.067017 437.270447,620.464294 435.201691,621.105347 
	C432.254303,622.018616 431.383301,624.083801 431.375427,626.799500 
	C431.350281,635.461426 431.520386,644.127686 431.289276,652.783569 
	C431.176270,657.016113 434.655090,658.005981 436.876465,659.813721 
	C436.962982,661.789062 435.839325,662.173584 434.618408,662.184814 
	C429.289398,662.233826 423.959564,662.227722 418.630432,662.187195 
	C417.475189,662.178406 416.200348,662.095703 416.043091,660.495544 
	C415.917175,659.214294 416.871826,658.768982 417.834442,658.467285 
	C421.188934,657.416199 421.750824,654.894775 421.711548,651.790833 
	C421.608337,643.629761 421.657043,635.466736 421.666138,627.304443 
	C421.669342,624.452881 421.240662,621.915894 417.826111,621.245911 
	C416.484192,620.982666 415.691650,620.180298 415.952118,618.797058 
	C416.299744,616.950745 417.843109,617.160095 419.136993,617.316528 
	C424.462219,617.960388 429.774200,617.526855 435.472534,617.358154 
z"/>
<path fill="#000000" opacity="1.000000" stroke="none" 
	d="
M652.875610,366.476746 
	C651.585510,371.048065 649.225159,374.017944 644.613220,374.490204 
	C640.197266,374.942383 636.800232,373.171234 634.571411,369.367188 
	C632.444031,365.736328 632.586731,362.055969 634.887573,358.535400 
	C637.571106,354.429230 641.587463,353.832153 645.910828,354.861603 
	C650.563354,355.969391 652.819397,359.779816 652.875610,366.476746 
z"/>
<path fill="#000000" opacity="1.000000" stroke="none" 
	d="
M686.658630,494.152527 
	C684.748169,489.885284 684.616577,486.039612 687.591370,482.677368 
	C689.822205,480.155945 692.809875,479.065857 696.127625,479.984711 
	C700.314636,481.144257 703.045776,483.771820 703.311035,488.379517 
	C703.550415,492.537964 702.281616,496.160187 698.219910,497.684357 
	C693.896545,499.306732 689.717163,498.827637 686.658630,494.152527 
z"/>
</svg>